<svg width="640" height="480" xmlns="http://www.w3.org/2000/svg">
 <!-- Created with Method Draw - http://github.com/duopixel/Method-Draw/ -->

 <g>
  <title>background</title>
  <rect fill="none" id="canvas_background" height="482" width="642" y="-1" x="-1"/>
  <g display="none" overflow="visible" y="0" x="0" height="100%" width="100%" id="canvasGrid">
   <rect fill="url(#gridpattern)" stroke-width="0" y="0" x="0" height="100%" width="100%"/>
  </g>
 </g>
 <g>
  <title>Layer 1</title>
  <path id="svg_3" d="m8.59075,10.84941c0,0 0.28351,-2.81893 0,-3.77383c-0.28385,-0.9549 -0.39705,-1.59097 -1.02118,-2.04634s-0.39672,-0.36461 -0.85054,-0.31803c-0.45382,0.04578 -0.83217,0.63607 -0.83217,0.9541c0,0 -0.28351,0.04578 -0.39672,0.31884c-0.11354,0.27306 -0.30255,1.54519 -0.30255,1.86403s0.0945,2.45592 0.18901,2.91049l-0.11254,0.09075c-0.0945,2.63662 0.37802,2.95546 0.37802,2.95546c0.16997,2.45592 0.34028,1.41027 0.34028,2.04634s-0.17031,0.40959 -0.17031,0.40959s-0.15094,0.99988 -0.52896,1.36369c-0.37802,0.36301 -2.47649,2.31779 -2.64713,2.72738c-0.17064,0.41039 -0.15127,2.31939 -0.15127,2.31939l8.99864,0c0,0 0.0197,-1.909 -0.15094,-2.31939c-0.17098,-0.41039 -2.26945,-2.36437 -2.64747,-2.72738c-0.37802,-0.36381 -0.52896,-1.36369 -0.52896,-1.36369s-0.17031,0.22648 -0.17031,-0.40959s0.17031,0.40959 0.34062,-2.04634c0,0 0.47219,-0.31884 0.37802,-2.95546l-0.11354,0z" fill-opacity="null" stroke-opacity="null" stroke-width="1.5" stroke="#000" fill="#fff"/>
  <path stroke="#000" id="svg_8" d="m328.75,263.69729l-1,0c10.12542,0 18.33371,-8.05904 18.33371,-18.00037l73.33263,0l0,0c0,9.94133 8.20828,18.00037 18.3337,18.00037l0,71.99932l0,0c-10.12542,0 -18.3337,8.05903 -18.3337,18.00036l-73.33263,0c0,-9.94133 -8.20829,-18.00036 -18.33371,-18.00036l0.25,-71.99932z" fill-opacity="null" stroke-opacity="null" stroke-width="1.5" fill="#CFCA6D"/>
  <rect stroke="#000" transform="rotate(89.5721206665039 380.8677978515625,263.7512512207031) " id="svg_11" height="13" width="34.39805" y="257.25127" x="363.66877" stroke-opacity="null" stroke-width="1.5" fill="#7B572D"/>
  <path stroke="#000" id="svg_6" d="m392.05372,294.6851l0,-5.18074l-0.00186,0c-0.00185,-6.39459 -5.26098,-11.57716 -11.75003,-11.57716s-11.75003,5.1844 -11.75003,11.57899l0,0l0,5.17891l-4.24997,0l0,22.2421l31.54686,-0.44114l0.45314,-21.80096l-4.24811,0zm-19.78992,-5.17891c0,0 0,0 0,0c0,-4.36909 3.60626,-7.92285 8.03803,-7.92285c4.43548,0 8.04174,3.55376 8.04174,7.92102c0,0 0,0 0,0l0,5.18074l-16.07977,0l0,-5.17891z" stroke-opacity="null" stroke-width="1.5" fill="#482816"/>
  <rect id="svg_9" height="13" width="36" y="298.14894" x="328" stroke-opacity="null" stroke-width="1.5" stroke="#000" fill="#FFE7A2"/>
  <rect stroke="#000" id="svg_12" height="13" width="39.85106" y="297.57447" x="396.70213" stroke-opacity="null" stroke-width="1.5" fill="#FFE7A2"/>
  <rect stroke="#000" transform="rotate(89.5721206665039 381.6935119628907,335.2457580566406) " id="svg_13" height="13" width="35.06534" y="328.74575" x="364.16083" stroke-opacity="null" stroke-width="1.5" fill="#7B572D"/>
 </g>
</svg>